<svg xmlns="http://www.w3.org/2000/svg" width="17" height="15" viewBox="0 0 17 15">
  <g id="Gruppe_34606" data-name="Gruppe 34606" transform="translate(-1863 -51)">
    <g id="Gruppe_34512" data-name="Gruppe 34512" transform="translate(-5030.822 89.352)">
      <path id="Pfad_13431" data-name="Pfad 13431" d="M108.133.648H92.511a.686.686,0,0,0-.689.682V14.966a.686.686,0,0,0,.689.682h15.622a.686.686,0,0,0,.689-.682V1.33a.686.686,0,0,0-.689-.682m-.689,13.636H93.2V2.011h14.243Z" transform="translate(6802 -39)"/>
      <path id="Pfad_13432" data-name="Pfad 13432" d="M100.321,8h0a3.9,3.9,0,0,0,2.761-1.134,3.818,3.818,0,0,0,1.141-2.734.685.685,0,0,0-.689-.681h0a.686.686,0,0,0-.688.683,2.466,2.466,0,0,1-.739,1.769,2.526,2.526,0,0,1-1.786.733h0a2.522,2.522,0,0,1-1.784-.73,2.471,2.471,0,0,1-.742-1.767.685.685,0,0,0-.689-.681h0a.685.685,0,0,0-.688.682,3.815,3.815,0,0,0,1.146,2.731A3.9,3.9,0,0,0,100.321,8" transform="translate(6802 -39)"/>
    </g>
  </g>
</svg>
