<svg xmlns="http://www.w3.org/2000/svg" width="15" height="15" viewBox="0 0 15 15">
  <path id="Pfad_13459" data-name="Pfad 13459" d="M446.224,385.8a7.5,7.5,0,1,0,7.5,7.5A7.509,7.509,0,0,0,446.224,385.8Zm0,13.636c-.586,0-1.356-1.182-1.764-3.182h3.527C447.58,398.25,446.809,399.432,446.224,399.432Zm-1.966-4.545a15.863,15.863,0,0,1,0-3.182h3.932c.049.5.079,1.027.079,1.591s-.03,1.092-.079,1.591Zm-4.171-1.591a6.1,6.1,0,0,1,.217-1.591h2.589c-.05.527-.078,1.061-.078,1.591s.028,1.064.078,1.591H440.3A6.1,6.1,0,0,1,440.087,393.3Zm6.137-6.136c.585,0,1.356,1.182,1.763,3.181H444.46C444.868,388.342,445.638,387.16,446.224,387.16Zm3.33,4.545h2.589a5.941,5.941,0,0,1,0,3.182h-2.589c.05-.527.079-1.061.079-1.591S449.6,392.232,449.554,391.7Zm2.045-1.364h-2.235a10.233,10.233,0,0,0-.875-2.743A6.168,6.168,0,0,1,451.6,390.341Zm-7.641-2.743a10.23,10.23,0,0,0-.875,2.743h-2.235A6.168,6.168,0,0,1,443.958,387.6Zm-3.11,8.652h2.235a10.226,10.226,0,0,0,.875,2.744A6.17,6.17,0,0,1,440.848,396.25Zm7.641,2.744a10.228,10.228,0,0,0,.875-2.744H451.6A6.17,6.17,0,0,1,448.489,398.994Z" transform="translate(-438.724 -385.796)"/>
</svg>
