<svg xmlns="http://www.w3.org/2000/svg" width="17" height="15" viewBox="0 0 17 15">
  <path id="Pfad_13879" data-name="Pfad 13879" d="M55.324,15.648a.69.69,0,0,1-.379-.112C51.911,13.554,46.824,9.6,46.824,5.385A4.667,4.667,0,0,1,51.4.648a5,5,0,0,1,3.923,1.918,4.984,4.984,0,0,1,3.9-1.918,4.676,4.676,0,0,1,4.6,4.744c-.006,4.208-5.087,8.161-8.116,10.143a.692.692,0,0,1-.381.113M51.413,2.012A3.294,3.294,0,0,0,48.2,5.368c0,3.532,4.708,7.153,7.122,8.777,2.412-1.626,7.119-5.25,7.119-8.761V5.368a3.3,3.3,0,0,0-3.231-3.356,3.578,3.578,0,0,0-3.254,2.164.692.692,0,0,1-1.269,0,3.582,3.582,0,0,0-3.276-2.164" transform="translate(-46.823 -0.648)"/>
</svg>
