<svg xmlns="http://www.w3.org/2000/svg" width="180" height="180" viewBox="0 0 190 190">
    <g id="Gruppe_41509" transform="translate(-905 5)">
    <path id="Pfad_14657" data-name="Pfad 14657" d="M0,0H180V180H0Z" transform="translate(910)" fill="#fff"/>
    <path id="Pfad_14657_-_Kontur" data-name="Pfad 14657 - Kontur" d="M0,0V180H180V0H0M-5-5H185V185H-5Z" transform="translate(910)" fill="#f0f0f0"/>
    <path id="Pfad_14632" data-name="Pfad 14632" d="M146.48,22.5v91.736h-90v-57.8h44.081V68.374H68.419v33.939h66.122V22.5H22.5V125.25H33.52V33.509h90v57.8H79.439V79.376h32.142V45.437H45.459V125.25H157.5V22.5Z" transform="translate(910)"/>
    <g id="Gruppe_41220" data-name="Gruppe 41220" transform="translate(910)">
        <g id="Gruppe_41222" data-name="Gruppe 41222">
        <path id="Pfad_14633" data-name="Pfad 14633" d="M32.412,143.5a5.029,5.029,0,0,0-2.517-.629H22.5v14.423h3.863v-4.368H29.68a5.151,5.151,0,0,0,2.634-.68,4.989,4.989,0,0,0,1.844-1.844,5.239,5.239,0,0,0,.673-2.668,4.8,4.8,0,0,0-.654-2.514,4.745,4.745,0,0,0-1.765-1.72m-1.854,5.161a1.572,1.572,0,0,1-.663.556,2.3,2.3,0,0,1-.956.186H26.305V146.4h2.634a2.708,2.708,0,0,1,.956.154,1.542,1.542,0,0,1,.663.464,1.194,1.194,0,0,1,.254.783,1.5,1.5,0,0,1-.254.865"/>
        <path id="Pfad_14634" data-name="Pfad 14634" d="M38.939,157.294H50.1v-3.359H42.461v-2.369h6.325v-3.173H42.461v-2.164H50.1v-3.358H38.939Z"/>
        <path id="Pfad_14635" data-name="Pfad 14635" d="M64.58,151.823a4.715,4.715,0,0,0,1.835-1.741,4.861,4.861,0,0,0,.67-2.555,4.653,4.653,0,0,0-.631-2.462,4.24,4.24,0,0,0-1.8-1.617,6.359,6.359,0,0,0-2.83-.577H54.562v14.423H58.23v-4.842h2.018l3.11,4.842h4.437l-3.477-5.339c.089-.042.176-.085.262-.132m-1.6-3.111a1.693,1.693,0,0,1-.631.6,1.86,1.86,0,0,1-.907.216H58.23v-3.379h3.1a2.432,2.432,0,0,1,.977.185,1.544,1.544,0,0,1,.67.546,1.586,1.586,0,0,1,.247.917,1.7,1.7,0,0,1-.237.917"/>
        <path id="Pfad_14636" data-name="Pfad 14636" d="M93.24,142.871l-5.894,14.423h3.615l.914-2.266H97.64l.92,2.266h3.689l-5.876-14.423Zm-.2,9.272s1.728-4.508,1.732-4.5,1.7,4.5,1.7,4.5Z"/>
        <path id="Pfad_14637" data-name="Pfad 14637" d="M113.3,149.359l-4.269-6.489h-3.256v14.424h3.6v-7.912l3.274,4.7h1.243l3.331-4.706v7.921h3.6V142.87h-3.219Z"/>
        <path id="Pfad_14638" data-name="Pfad 14638" d="M137.831,144.633a7.247,7.247,0,0,0-2.446-1.577,8.4,8.4,0,0,0-3.114-.556,8.217,8.217,0,0,0-3.1.567,7.361,7.361,0,0,0-2.437,1.576,7.219,7.219,0,0,0-1.6,2.369A7.6,7.6,0,0,0,124.56,150a7.722,7.722,0,0,0,.565,2.977,7.073,7.073,0,0,0,1.6,2.38,7.314,7.314,0,0,0,2.446,1.576,8.286,8.286,0,0,0,3.1.567,8.4,8.4,0,0,0,3.114-.556,7.244,7.244,0,0,0,2.446-1.576,7,7,0,0,0,1.594-2.391,7.889,7.889,0,0,0,.556-3,7.762,7.762,0,0,0-.556-2.967,7.024,7.024,0,0,0-1.594-2.379m-1.881,6.83a3.515,3.515,0,0,1-.816,1.185,3.719,3.719,0,0,1-1.26.783,4.434,4.434,0,0,1-1.585.278,4.486,4.486,0,0,1-1.6-.278,3.911,3.911,0,0,1-1.27-.773,3.332,3.332,0,0,1-.825-1.185,3.949,3.949,0,0,1,0-2.956,3.356,3.356,0,0,1,.825-1.175,3.911,3.911,0,0,1,1.27-.773,4.683,4.683,0,0,1,3.179,0,3.7,3.7,0,0,1,1.269.783,3.515,3.515,0,0,1,.816,1.185,3.872,3.872,0,0,1,0,2.926"/>
        <path id="Pfad_14639" data-name="Pfad 14639" d="M153.96,151.209l-6.728-8.338H143.84v14.423h3.54s0-7.9-.009-8.349v-.04l6.7,8.389H157.5V142.871h-3.54Z"/>
        <path id="Pfad_14640" data-name="Pfad 14640" d="M85.571,149.011H77.934v2.926H81.77a1.88,1.88,0,0,1-.214.556,2.368,2.368,0,0,1-.435.538,2.646,2.646,0,0,1-.3.245,3.631,3.631,0,0,1-1.1.515,4.948,4.948,0,0,1-1.394.186,5.215,5.215,0,0,1-1.583-.237,3.662,3.662,0,0,1-1.318-.732,3.4,3.4,0,0,1-.891-1.236A4.426,4.426,0,0,1,74.217,150a4.116,4.116,0,0,1,.3-1.6,3.643,3.643,0,0,1,.853-1.257,4.016,4.016,0,0,1,1.3-.824,4.34,4.34,0,0,1,1.622-.3,5.331,5.331,0,0,1,1.536.206,5.88,5.88,0,0,1,1.251.536c.15.087.294.18.434.275l2.843-2.195a7.113,7.113,0,0,0-1.466-1.15,8.293,8.293,0,0,0-2.038-.865,9.1,9.1,0,0,0-2.5-.33,9.193,9.193,0,0,0-3.261.556,7.545,7.545,0,0,0-2.551,1.566A7.051,7.051,0,0,0,70.88,147a7.525,7.525,0,0,0-.588,3,8.771,8.771,0,0,0,.54,3.173,6.379,6.379,0,0,0,1.546,2.359,6.727,6.727,0,0,0,2.418,1.463,9.138,9.138,0,0,0,3.1.505,9.871,9.871,0,0,0,3.053-.443,7.075,7.075,0,0,0,2.361-1.267,5.569,5.569,0,0,0,1.536-2.009,6.417,6.417,0,0,0,.243-.608h0A8.771,8.771,0,0,0,85.63,150c0-.176-.007-.348-.017-.52s-.024-.314-.042-.469"/>
        </g>
    </g>
    </g>
</svg>