<svg xmlns="http://www.w3.org/2000/svg" width="17" height="15" viewBox="0 0 17 15">
  <g id="Gruppe_34520" data-name="Gruppe 34520" transform="translate(-0.001)">
    <g id="Gruppe_34522" data-name="Gruppe 34522">
      <path id="Pfad_13434" data-name="Pfad 13434" d="M16.958,14.083a7.486,7.486,0,0,0-1.38-2.338,6.558,6.558,0,0,0-2.073-1.6,5.827,5.827,0,0,0-2.572-.6H6.068a5.82,5.82,0,0,0-2.571.6,6.551,6.551,0,0,0-2.074,1.6,7.5,7.5,0,0,0-1.38,2.338.68.68,0,0,0,.409.875.694.694,0,0,0,.885-.4,6.128,6.128,0,0,1,1.129-1.916,5.192,5.192,0,0,1,1.639-1.271,4.46,4.46,0,0,1,1.963-.457h4.865a4.46,4.46,0,0,1,1.963.457,5.207,5.207,0,0,1,1.64,1.271,6.172,6.172,0,0,1,1.128,1.916.689.689,0,0,0,.647.447.7.7,0,0,0,.237-.042.68.68,0,0,0,.41-.875"/>
      <path id="Pfad_13435" data-name="Pfad 13435" d="M8.513,8.182A4.238,4.238,0,0,0,11.5,6.911a3.941,3.941,0,0,0,1.139-2.825A4.123,4.123,0,0,0,8.484,0,4.227,4.227,0,0,0,5.5,1.269,3.92,3.92,0,0,0,4.366,4.082a3.934,3.934,0,0,0,1.189,2.88,4.257,4.257,0,0,0,2.958,1.22M6.495,2.217a2.847,2.847,0,0,1,2-.854,2.744,2.744,0,0,1,2.765,2.713V4.1a2.583,2.583,0,0,1-.751,1.864A2.779,2.779,0,0,1,6.529,6a2.6,2.6,0,0,1-.785-1.917,2.584,2.584,0,0,1,.751-1.864"/>
    </g>
  </g>
</svg>
